<svg width="181" height="66" viewBox="0 0 181 66" fill="none" xmlns="http://www.w3.org/2000/svg">
<circle cx="5" cy="5" r="5" fill="#A5D82A"/>
<path d="M163.465 64.468L157.991 64.7413L174.724 27.1591L180.106 27.1591L163.465 64.468ZM167.502 52.6648C166.855 52.9373 166.242 52.9714 165.663 52.767C165.118 52.5285 164.675 52.0857 164.334 51.4385L152.633 29.2117C152.292 28.5645 151.568 27.3668 151.568 27.3668L157.027 27.2701L168.217 49.4968C168.558 50.1441 168.677 50.7742 168.575 51.3874C168.507 51.9665 168.149 52.3923 167.502 52.6648Z" fill="#1A434E"/>
<path d="M143.969 53.0813C142.471 53.0813 141.142 52.6726 139.984 51.855C138.826 51.0375 137.923 49.9304 137.276 48.5338C136.629 47.1031 136.305 45.468 136.305 43.6285V15.7301C136.305 14.9807 136.305 13.1753 136.305 13.1753L138.86 13.1753L141.415 13.1753C141.415 13.1753 141.415 14.9807 141.415 15.7301V43.6285C141.415 44.8889 141.653 45.9279 142.13 46.7454C142.607 47.5629 143.22 47.9717 143.969 47.9717H145.247C145.928 47.9717 147.546 47.9717 147.546 47.9717C147.546 47.9717 147.546 49.7771 147.546 50.5265C147.546 51.2759 147.546 53.0813 147.546 53.0813C147.546 53.0813 145.093 53.0813 144.072 53.0813H143.969Z" fill="#1A434E"/>
<path d="M104.006 65.0379H101.4C101.4 65.0379 101.4 63.1814 101.4 62.432V39.1322C101.434 36.4411 102.064 34.0226 103.29 31.8766C104.517 29.7305 106.186 28.0443 108.298 26.818C110.41 25.5577 112.794 24.9275 115.451 24.9275C118.142 24.9275 120.544 25.5577 122.656 26.818C124.768 28.0443 126.437 29.7305 127.663 31.8766C128.924 34.0226 129.554 36.4411 129.554 39.1322C129.554 41.8233 128.975 44.2418 127.816 46.3878C126.692 48.4998 125.142 50.186 123.167 51.4463C121.191 52.6727 118.96 53.2858 116.473 53.2858C114.463 53.2858 112.607 52.877 110.904 52.0595C109.235 51.2079 107.804 50.0668 106.612 48.6361V62.432C106.612 63.1814 106.612 65.0379 106.612 65.0379H104.006ZM115.451 48.6872C117.188 48.6872 118.738 48.2784 120.101 47.4609C121.464 46.6093 122.537 45.4681 123.32 44.0374C124.138 42.5727 124.546 40.9376 124.546 39.1322C124.546 37.2927 124.138 35.6577 123.32 34.227C122.537 32.7622 121.464 31.6211 120.101 30.8035C118.738 29.9519 117.188 29.5261 115.451 29.5261C113.748 29.5261 112.198 29.9519 110.801 30.8035C109.439 31.6211 108.366 32.7622 107.582 34.227C106.799 35.6577 106.407 37.2927 106.407 39.1322C106.407 40.9376 106.799 42.5727 107.582 44.0374C108.366 45.4681 109.439 46.6093 110.801 47.4609C112.198 48.2784 113.748 48.6872 115.451 48.6872Z" fill="#1A434E"/>
<path d="M82.795 53.2858C79.9677 53.2858 77.447 52.6897 75.2328 51.4974C73.0527 50.2711 71.3325 48.602 70.0721 46.49C68.8458 44.344 68.2327 41.8914 68.2327 39.1322C68.2327 36.3389 68.8118 33.8863 69.9699 31.7744C71.1622 29.6283 72.7972 27.9592 74.8752 26.7669C76.9531 25.5406 79.3375 24.9275 82.0286 24.9275C84.6856 24.9275 86.9679 25.5236 88.8755 26.7159C90.7831 27.874 92.2308 29.4921 93.2186 31.57C94.2406 33.6138 94.7515 35.9813 94.7515 38.6723V40.9206H92.4011H71.8094V36.8329H92.2478L90.1529 38.2636C90.1188 36.5604 89.7782 35.0445 89.131 33.716C88.4837 32.3534 87.564 31.2804 86.3718 30.497C85.1795 29.7135 83.7318 29.3217 82.0286 29.3217C80.087 29.3217 78.4178 29.7475 77.0212 30.5992C75.6586 31.4508 74.6197 32.626 73.9043 34.1248C73.189 35.5895 72.8313 37.2587 72.8313 39.1322C72.8313 41.0057 73.2571 42.6749 74.1087 44.1396C74.9603 45.6044 76.1355 46.7625 77.6343 47.6141C79.1332 48.4657 80.8534 48.8915 82.795 48.8915C83.851 48.8915 84.924 48.7042 86.0141 48.3295C87.1382 47.9207 88.0409 47.4609 88.7222 46.9499C89.2331 46.5752 90.5139 45.6603 90.5139 45.6603C90.5139 45.6603 91.2876 46.4414 91.7305 46.8161L93.677 48.8234C93.677 48.8234 92.6225 49.7261 92.0434 50.1689C90.8853 51.0887 89.4375 51.8381 87.7003 52.4172C85.9971 52.9963 84.362 53.2858 82.795 53.2858Z" fill="#1A434E"/>
<path d="M52.0586 53.2858C49.2313 53.2858 46.7105 52.6897 44.4964 51.4974C42.3163 50.2711 40.596 48.602 39.3357 46.49C38.1094 44.344 37.4962 41.8914 37.4962 39.1322C37.4962 36.3389 38.0753 33.8863 39.2335 31.7744C40.4257 29.6283 42.0608 27.9592 44.1387 26.7669C46.2166 25.5406 48.6011 24.9275 51.2922 24.9275C53.9491 24.9275 56.2314 25.5236 58.139 26.7159C60.0466 27.874 61.4943 29.4921 62.4822 31.57C63.5041 33.6138 64.0151 35.9813 64.0151 38.6723V40.9206H61.6647H41.0729V36.8329H61.5114L59.4164 38.2636C59.3824 36.5604 59.0417 35.0445 58.3945 33.716C57.7473 32.3534 56.8276 31.2804 55.6353 30.497C54.4431 29.7135 52.9954 29.3217 51.2922 29.3217C49.3505 29.3217 47.6814 29.7475 46.2847 30.5992C44.9222 31.4508 43.8832 32.626 43.1679 34.1248C42.4525 35.5895 42.0949 37.2587 42.0949 39.1322C42.0949 41.0057 42.5207 42.6749 43.3723 44.1396C44.2239 45.6044 45.3991 46.7625 46.8979 47.6141C48.3967 48.4657 50.1169 48.8915 52.0586 48.8915C53.1146 48.8915 54.1876 48.7042 55.2776 48.3295C56.4018 47.9207 57.3045 47.4609 57.9857 46.9499C58.4967 46.5752 59.7774 45.6603 59.7774 45.6603C59.7774 45.6603 60.5512 46.4414 60.994 46.8161L62.9405 48.8234C62.9405 48.8234 61.8861 49.7261 61.307 50.1689C60.1488 51.0887 58.7011 51.8381 56.9638 52.4172C55.2606 52.9963 53.6255 53.2858 52.0586 53.2858Z" fill="#1A434E"/>
<path d="M17.0514 53.2856C14.3944 53.2856 12.0099 52.6725 9.89797 51.4462C7.786 50.1858 6.11686 48.4826 4.89055 46.3366C3.66425 44.1905 3.03406 41.772 3 39.0809V15.7811L5.6059 15.7811L8.2118 15.7811V29.5771C9.40404 28.1464 10.8347 27.0223 12.5039 26.2047C14.2071 25.3531 16.0636 24.9273 18.0733 24.9273C20.56 24.9273 22.7912 25.5575 24.7669 26.8179C26.7426 28.0442 28.2925 29.7303 29.4167 31.8764C30.5748 33.9884 31.1539 36.3899 31.1539 39.0809C31.1539 41.772 30.5237 44.1905 29.2634 46.3366C28.0371 48.4826 26.3679 50.1858 24.256 51.4462C22.144 52.6725 19.7425 53.2856 17.0514 53.2856ZM17.0514 48.687C18.7887 48.687 20.3386 48.2782 21.7012 47.4607C23.0637 46.6091 24.1367 45.4509 24.9202 43.9862C25.7377 42.5214 26.1465 40.8863 26.1465 39.0809C26.1465 37.2415 25.7377 35.6064 24.9202 34.1757C24.1367 32.745 23.0637 31.6209 21.7012 30.8034C20.3386 29.9518 18.7887 29.526 17.0514 29.526C15.3482 29.526 13.7983 29.9518 12.4017 30.8034C11.0391 31.6209 9.9661 32.745 9.18262 34.1757C8.39915 35.6064 8.00741 37.2415 8.00741 39.0809C8.00741 40.8863 8.39915 42.5214 9.18262 43.9862C9.9661 45.4509 11.0391 46.6091 12.4017 47.4607C13.7983 48.2782 15.3482 48.687 17.0514 48.687Z" fill="#1A434E"/>
</svg>
