<svg width="106" height="38" viewBox="0 0 106 38" fill="none" xmlns="http://www.w3.org/2000/svg">
<circle cx="2.92137" cy="2.92137" r="2.92137" fill="#A5D82A"/>
<path d="M95.5088 37.667L92.3103 37.8266L102.087 15.8683L105.231 15.8683L95.5088 37.667ZM97.8673 30.7706C97.4891 30.9299 97.1309 30.9498 96.7925 30.8304C96.4741 30.691 96.2153 30.4323 96.0163 30.0541L89.1797 17.0676C88.9807 16.6894 88.5574 15.9896 88.5574 15.9896L91.7472 15.9331L98.2852 28.9197C98.4843 29.2978 98.5539 29.666 98.4942 30.0243C98.4544 30.3626 98.2454 30.6114 97.8673 30.7706Z" fill="#1A434E"/>
<path d="M84.1175 31.0141C83.2418 31.0141 82.4656 30.7752 81.7889 30.2976C81.1122 29.8199 80.5848 29.1731 80.2066 28.3571C79.8285 27.5211 79.6394 26.5658 79.6394 25.4911V9.19071C79.6394 8.75284 79.6394 7.69801 79.6394 7.69801L81.1321 7.698L82.6248 7.69801C82.6248 7.69801 82.6248 8.75284 82.6248 9.19071V25.4911C82.6248 26.2275 82.7641 26.8345 83.0428 27.3122C83.3214 27.7898 83.6797 28.0287 84.1175 28.0287H84.8639C85.2619 28.0287 86.2073 28.0287 86.2073 28.0287C86.2073 28.0287 86.2073 29.0835 86.2073 29.5214C86.2073 29.9592 86.2073 31.0141 86.2073 31.0141C86.2073 31.0141 84.7743 31.0141 84.1772 31.0141H84.1175Z" fill="#1A434E"/>
<path d="M60.7679 38.0001H59.2454C59.2454 38.0001 59.2454 36.9154 59.2454 36.4775V22.864C59.2653 21.2917 59.6335 19.8786 60.35 18.6247C61.0665 17.3709 62.0417 16.3857 63.2757 15.6692C64.5097 14.9328 65.9029 14.5646 67.4553 14.5646C69.0276 14.5646 70.4307 14.9328 71.6647 15.6692C72.8987 16.3857 73.8739 17.3709 74.5904 18.6247C75.3268 19.8786 75.695 21.2917 75.695 22.864C75.695 24.4363 75.3567 25.8494 74.68 27.1033C74.0232 28.3373 73.1176 29.3225 71.9632 30.0589C70.8089 30.7754 69.5053 31.1336 68.0524 31.1336C66.8781 31.1336 65.7934 30.8948 64.7982 30.4171C63.823 29.9196 62.9871 29.2528 62.2905 28.4169V36.4775C62.2905 36.9154 62.2905 38.0001 62.2905 38.0001H60.7679ZM67.4553 28.4467C68.4703 28.4467 69.3759 28.2079 70.172 27.7302C70.9681 27.2327 71.595 26.5659 72.0528 25.73C72.5305 24.8742 72.7693 23.9189 72.7693 22.864C72.7693 21.7893 72.5305 20.8339 72.0528 19.998C71.595 19.1422 70.9681 18.4755 70.172 17.9978C69.3759 17.5002 68.4703 17.2514 67.4553 17.2514C66.4601 17.2514 65.5546 17.5002 64.7385 17.9978C63.9424 18.4755 63.3155 19.1422 62.8577 19.998C62.4 20.8339 62.1711 21.7893 62.1711 22.864C62.1711 23.9189 62.4 24.8742 62.8577 25.73C63.3155 26.5659 63.9424 27.2327 64.7385 27.7302C65.5546 28.2079 66.4601 28.4467 67.4553 28.4467Z" fill="#1A434E"/>
<path d="M48.375 31.1336C46.7231 31.1336 45.2503 30.7853 43.9566 30.0887C42.6828 29.3722 41.6777 28.397 40.9413 27.163C40.2248 25.9091 39.8666 24.4761 39.8666 22.864C39.8666 21.232 40.2049 19.799 40.8816 18.565C41.5782 17.3112 42.5335 16.3359 43.7476 15.6393C44.9617 14.9228 46.3549 14.5646 47.9272 14.5646C49.4796 14.5646 50.8131 14.9129 51.9276 15.6095C53.0422 16.2862 53.8881 17.2315 54.4652 18.4456C55.0623 19.6398 55.3609 21.023 55.3609 22.5953V23.9089H53.9876H41.9564V21.5206H53.898L52.674 22.3565C52.6541 21.3614 52.4551 20.4757 52.0769 19.6995C51.6988 18.9034 51.1614 18.2764 50.4648 17.8187C49.7682 17.3609 48.9223 17.132 47.9272 17.132C46.7927 17.132 45.8175 17.3808 45.0015 17.8784C44.2054 18.376 43.5983 19.0626 43.1804 19.9383C42.7624 20.7941 42.5534 21.7694 42.5534 22.864C42.5534 23.9587 42.8022 24.9339 43.2998 25.7897C43.7974 26.6455 44.484 27.3222 45.3597 27.8198C46.2355 28.3174 47.2405 28.5662 48.375 28.5662C48.992 28.5662 49.6189 28.4567 50.2558 28.2378C50.9126 27.9989 51.44 27.7303 51.8381 27.4317C52.1366 27.2128 52.8849 26.6782 52.8849 26.6782C52.8849 26.6782 53.337 27.1346 53.5957 27.3535L54.733 28.5264C54.733 28.5264 54.117 29.0538 53.7786 29.3125C53.1019 29.8499 52.256 30.2878 51.241 30.6261C50.2459 30.9644 49.2905 31.1336 48.375 31.1336Z" fill="#1A434E"/>
<path d="M30.4166 31.1336C28.7647 31.1336 27.2919 30.7853 25.9982 30.0887C24.7244 29.3722 23.7194 28.397 22.983 27.163C22.2665 25.9091 21.9082 24.4761 21.9082 22.864C21.9082 21.232 22.2465 19.799 22.9232 18.565C23.6198 17.3112 24.5752 16.3359 25.7892 15.6393C27.0033 14.9228 28.3965 14.5646 29.9688 14.5646C31.5212 14.5646 32.8547 14.9129 33.9693 15.6095C35.0838 16.2862 35.9297 17.2315 36.5069 18.4456C37.104 19.6398 37.4025 21.023 37.4025 22.5953V23.9089H36.0292H23.998V21.5206H35.9396L34.7156 22.3565C34.6957 21.3614 34.4967 20.4757 34.1185 19.6995C33.7404 18.9034 33.203 18.2764 32.5064 17.8187C31.8098 17.3609 30.964 17.132 29.9688 17.132C28.8344 17.132 27.8591 17.3808 27.0431 17.8784C26.247 18.376 25.64 19.0626 25.222 19.9383C24.8041 20.7941 24.5951 21.7694 24.5951 22.864C24.5951 23.9587 24.8439 24.9339 25.3414 25.7897C25.839 26.6455 26.5256 27.3222 27.4014 27.8198C28.2771 28.3174 29.2822 28.5662 30.4166 28.5662C31.0336 28.5662 31.6606 28.4567 32.2974 28.2378C32.9542 27.9989 33.4817 27.7303 33.8797 27.4317C34.1783 27.2128 34.9266 26.6782 34.9266 26.6782C34.9266 26.6782 35.3786 27.1346 35.6374 27.3535L36.7747 28.5264C36.7747 28.5264 36.1586 29.0538 35.8202 29.3125C35.1435 29.8499 34.2977 30.2878 33.2826 30.6261C32.2875 30.9644 31.3322 31.1336 30.4166 31.1336Z" fill="#1A434E"/>
<path d="M9.9627 31.1334C8.41028 31.1334 7.01709 30.7751 5.78312 30.0586C4.54915 29.3222 3.57391 28.3271 2.85741 27.0732C2.14091 25.8194 1.77271 24.4063 1.75281 22.8339V9.22046L3.27537 9.22046L4.79793 9.22046V17.2811C5.49453 16.4452 6.33044 15.7884 7.30568 15.3107C8.30082 14.8131 9.38552 14.5643 10.5598 14.5643C12.0127 14.5643 13.3163 14.9325 14.4707 15.669C15.625 16.3855 16.5306 17.3706 17.1874 18.6245C17.8641 19.8585 18.2024 21.2616 18.2024 22.8339C18.2024 24.4063 17.8342 25.8194 17.0978 27.0732C16.3813 28.3271 15.4061 29.3222 14.1721 30.0586C12.9382 30.7751 11.535 31.1334 9.9627 31.1334ZM9.9627 28.4465C10.9777 28.4465 11.8833 28.2077 12.6794 27.73C13.4755 27.2325 14.1025 26.5558 14.5602 25.6999C15.0379 24.8441 15.2767 23.8888 15.2767 22.8339C15.2767 21.7592 15.0379 20.8039 14.5602 19.9679C14.1025 19.132 13.4755 18.4752 12.6794 17.9976C11.8833 17.5 10.9777 17.2512 9.9627 17.2512C8.96756 17.2512 8.06198 17.5 7.24597 17.9976C6.44986 18.4752 5.82292 19.132 5.36516 19.9679C4.9074 20.8039 4.67851 21.7592 4.67851 22.8339C4.67851 23.8888 4.9074 24.8441 5.36516 25.6999C5.82292 26.5558 6.44986 27.2325 7.24597 27.73C8.06198 28.2077 8.96756 28.4465 9.9627 28.4465Z" fill="#1A434E"/>
</svg>
